<?xml version="1.0" encoding="UTF-8"?>
<svg width="635px" height="160px" viewBox="0 0 635 160" version="1.1" xmlns="http://www.w3.org/2000/svg" xmlns:xlink="http://www.w3.org/1999/xlink">
    <!-- Generator: Sketch 61.2 (89653) - https://sketch.com -->
    <title>chart (1)</title>
    <desc>Created with Sketch.</desc>
    <defs>
        <linearGradient x1="74.4577721%" y1="50%" x2="8.17819433%" y2="50%" id="linearGradient-1">
            <stop stop-color="#FC5C22" offset="0%"></stop>
            <stop stop-color="#FC5C22" stop-opacity="0" offset="100%"></stop>
        </linearGradient>
    </defs>
    <g id="Page-1" stroke="none" stroke-width="1" fill="none" fill-rule="evenodd">
        <g id="chart-(1)" transform="translate(-57.000000, 0.000000)" stroke="url(#linearGradient-1)" stroke-width="4">
            <polyline id="Shape-Copy" points="0.3262236 159.776705 113.69882 155.837638 118.373442 154.697692 122.129283 150.528498 125.885123 150.412513 129.640964 155.166314 133.396804 153.148178 137.152645 151.267548 139.908485 150.324831 142.664326 151.126618 146.044582 150.278232 149.800423 150.061883 151.302759 149.354005 154.307432 151.904256 155.809768 150.767511 182.93652 141.237213 188.828458 140.219844 191.457546 137.92556 193.462218 136.780397 196.715723 137.002635 199.720395 137.187833 202.349483 137.23228 205.354156 136.485102 207.232076 137.275579 208.734412 139.680139 210.987917 140.514973 212.490253 141.077669 214.743757 140.973396 218.124014 140.107154 220.001934 139.635474 225.635695 137.119836 226.762447 137.977277 229.391535 138.12997 230.893872 139.273037 232.396208 138.128003 232.771792 137.440599 236.527632 138.136892 240.283473 138.604511 243.663729 138.326982 245.917234 137.617673 247.043986 136.893524 247.795154 136.06247 249.673074 135.509251 250.424242 134.820315 254.180083 134.837136 254.931251 135.744721 258.687092 135.748846 261.691764 134.692694 266.949941 135.274075 270.330197 135.62074 274.086038 135.814164 277.466294 136.211126 278.217463 137.175893 284.369304 142.896249 289.627481 141.210856 291.880985 140.639614 296.763578 140.995092 300.514746 138.674692 305.270587 136.425691 308.026427 133.317069 312.782268 129.900187 316.162524 128.275476 318.669533 125.65959 322.425374 121.676117 325.181214 121.947196 328.185887 119.666793 331.063807 120.112546 334.068479 121.257032 336.697568 121.271273 339.199904 122.288035 344.777361 123.547299 349.533202 117.991698 355.289043 113.791735 359.42514 112.154399 366.506599 112.154399 371.01828 107.440064 373.896201 103.881474 378.652041 104.68745 381.407882 102.57766 384.163722 101.556458 387.919563 101.570801 390.227704 98.1700502 393.983545 98.0442312 397.363801 97.6105992 400.744058 97.1376542 404.499899 96.5378942 407.880155 97.0446082 411.635996 96.6346442 415.391836 97.0392692 419.147677 90.3117152 420.650013 90.8858542 424.208652 87.0514804 427.964493 86.8562434 431.720334 87.0901804 435.476174 86.9769414 439.232015 86.8264584 442.987855 86.4842764 445.992528 85.4677054 456.508881 84.8291554 458.011217 84.3181364 461.248977 81.618287 463.878065 80.853789 467.258322 80.836891 467.633906 81.631621 471.389746 81.274495 474.394419 81.289107 475.145587 82.026642 478.901427 81.867959 482.657268 81.835262 486.037524 73.439653 487.539861 72.859332 490.920117 72.560601 494.300374 72.319167 499.55855 72.243082 503.314391 71.977317 507.070231 72.2099 510.826072 71.976512 518.337753 74.246359 521.71801 73.941434 525.098266 73.692324 527.727354 71.253227 531.107611 69.510833 534.487867 69.565754 537.868124 69.096117 541.872796 69.639705 545.253053 68.597743 549.51123 69.52616 554.018238 70.540023 595.708068 52.2948424 599.088325 51.9046493 602.844165 51.5115186 604.865371 49.2923352 606.224422 47.8408934 606.832305 46.3874081 619.369864 46.2706695 622.121032 45.2898862 624.628041 45.3662645 626.130377 44.8341713 627.886217 43.7635767 631.388554 43.2478321 634.017642 42.692238 636.271146 41.8457025 639.275819 42.2872985 640.778155 31.8459468 641.529323 29.1893129 643.782827 28.7104802 646.285164 28.1643375 649.538668 26.5974344 671.06702 27.5185656 671.442604 25.8782468 671.818188 23.274107 672.193772 18.7979342 681.58956 16.2888978 684.721489 21.3555108 687.350578 13.6288653 687.726162 12.2681068 688.47733 7.2454221 688.852914 6.0818675 689.228498 0.905263"></polyline>
        </g>
    </g>
</svg>