<?xml version="1.0" encoding="UTF-8" standalone="no"?>
<svg viewBox="0 0 460 110" version="1.1" xmlns="http://www.w3.org/2000/svg" xmlns:xlink="http://www.w3.org/1999/xlink">
    <!-- Generator: Sketch 48.2 (47327) - http://www.bohemiancoding.com/sketch -->
    <title>Shape Copy</title>
    <desc>Created with Sketch.</desc>
    <defs>
        <linearGradient x1="50%" y1="100%" x2="50%" y2="0%" id="linearGradient-1">
            <stop stop-color="#FF5E21" offset="0%"></stop>
            <stop stop-color="#FF5F21" stop-opacity="0" offset="100%"></stop>
        </linearGradient>
    </defs>
    <g id="in_numbers_1280" stroke="none" stroke-width="1" fill="none" fill-rule="evenodd" transform="translate(-441.000000, -5190.000000)" opacity="0.34923041" stroke-linecap="round" stroke-linejoin="round">
        <g id="Group-38" transform="translate(278.000000, 5070.000000)" stroke="url(#linearGradient-1)" stroke-width="4">
            <g id="Group-16">
                <g id="Group-13">
                    <g id="Group-50" transform="translate(165.000000, 101.000000)">
                        <path d="M0.681463054,127.000001 C2.36787544,127.001142 3.16887241,126.093625 4.83176881,126.027893 C6.50344914,125.961815 6.49166,122.53367 8.16634554,122.472603 C9.82623673,122.412076 9.85620574,122.449864 11.5009223,122.373696 C13.1907825,122.295438 13.1391352,126.484848 14.835499,126.427512 C16.4737119,126.372141 16.5096841,124.685049 18.1700757,124.706541 C19.8442608,124.728212 19.8319397,123.065046 21.5046524,123.102829 C23.1665164,123.140367 23.1894902,120.623149 24.8392292,120.593421 C26.5240669,120.56306 26.7745878,115.504984 28.1738059,115.30788 C29.9424357,115.058739 29.4096444,114.837396 31.174925,114.584417 C32.5774923,114.383418 33.2469186,114.613079 34.5095017,114.399925 C35.5811223,114.21901 35.3371977,114.112096 35.8433324,113.79628 C36.3375707,113.487888 36.1046363,113.469141 36.5102477,113.151509 C37.438467,112.424626 37.5130699,112.429565 38.5109938,111.707251 C39.1803583,111.222755 39.5559032,111.238247 39.8448244,110.737889 C40.3895473,109.794529 39.8020692,109.310576 40.1782821,108.819815 C40.3022557,108.658094 40.7070016,109.576878 40.8451975,109.432924 C41.2071881,109.055851 40.9312866,108.60362 41.1786551,107.777762 C41.2647443,107.490347 41.4075064,107.493505 41.5121128,107.206378 C41.740964,106.578219 41.4591916,106.568514 41.8455705,105.94719 C42.126107,105.496068 42.603215,105.513628 42.8459435,105.061486 C43.2701303,104.271333 42.9804836,104.261589 43.1794012,103.462601 C43.3139413,102.922196 43.3435998,102.922607 43.5128588,102.382699 C43.6770575,101.858934 43.6519161,101.8584 43.8463165,101.335255 C43.9853738,100.961042 44.1034104,100.384054 44.1797742,100.587983 C44.436868,101.274551 44.241549,102.318443 44.5132319,103.116248 C44.5750066,103.297652 44.7485137,102.832869 44.8466895,102.5464 C45.0819713,101.859868 44.9956452,101.858061 45.1801472,101.170248 C45.3291029,100.614949 45.3730962,99.9725196 45.5136049,100.060177 C45.7065539,100.180549 45.7210437,100.822852 45.8470626,101.586306 C46.0545014,102.843024 46.0040283,102.843489 46.1805202,104.100521 C46.337486,105.218482 46.2589644,106.313192 46.5139779,106.336292 C46.7591509,106.358501 46.8850409,105.264265 47.1808932,104.191139 C47.3852274,103.449971 47.3333311,102.771472 47.5143509,102.707705 C47.6667888,102.654006 47.5216379,103.335946 47.8478086,103.956208 C48.5220109,105.238303 48.8964982,105.228788 49.515097,106.51242 C50.0636,107.650599 49.8430002,108.393102 50.1820123,108.799828 C50.3431867,108.993196 50.0496298,108.24411 50.51547,107.712608 C51.3834605,106.722272 51.7402962,106.220972 52.8496737,105.756152 C53.2408557,105.59225 53.2040906,106.478154 53.516589,106.455163 C53.8710059,106.429088 53.7176692,106.048138 54.1835044,105.658019 C54.7180422,105.210363 55.1457919,105.23423 55.5173351,104.779612 C56.1461649,104.010179 55.7646932,103.415268 56.1842504,103.209916 C56.4316086,103.088847 56.504017,103.66891 56.8511658,104.12677 C57.1709323,104.548515 57.2446124,105.047081 57.5180811,104.969125 C57.9115277,104.856968 57.8325073,103.782034 58.1849964,103.746544 C58.4994226,103.714887 58.4069898,104.647256 58.8519118,104.834832 C59.0739051,104.928423 59.2540058,104.250859 59.5188271,104.308877 C59.9209211,104.39697 59.8141572,105.078354 60.1857425,105.127054 C60.4810725,105.165759 60.3186204,104.475016 60.8526578,104.483687 C61.4857223,104.493967 62.0058084,105.179538 62.5199462,105.164956 C63.0061814,105.151166 62.6672953,104.795408 62.8534039,104.426942 C63.0007529,104.135214 63.0726209,103.751657 63.1868615,103.844569 C63.4060786,104.022858 62.8631117,104.744915 63.5203192,104.969343 C63.8634847,105.08653 64.4696644,104.477733 65.1876076,104.527798 C66.1369527,104.594 66.3315707,104.841071 66.8548959,105.201879 C67.3319437,105.530781 67.0347356,105.554235 67.1883536,105.907218 C67.3681933,106.320453 67.2188835,106.326982 67.5218113,106.734315 C67.71907,106.999559 67.6705612,107.013465 68.1887266,107.252373 C69.0043919,107.628448 69.1921801,107.607857 70.1894727,107.96428 C70.8594685,108.20373 71.029543,108.500073 71.5233034,108.44412 C72.1966449,108.367817 72.2207757,107.656626 72.5236764,107.699767 C72.8876911,107.751612 72.65841,108.167701 72.857134,108.634091 C72.9918676,108.9503 73.0537291,109.322198 73.1905917,109.264965 C73.3871867,109.182753 73.2352073,108.806363 73.5240494,108.355201 C74.2355803,107.243812 74.2729468,106.779789 75.1913378,106.139862 C75.4400486,105.966563 75.5893001,106.430998 75.8582531,106.728749 C76.2562155,107.169323 75.8052331,107.466758 76.5251684,107.616512 C76.9723349,107.709526 77.3591972,107.214106 78.1924568,107.214285 C79.0264855,107.214465 78.9888956,107.424808 79.8597452,107.61723 C81.1563704,107.903733 81.8337644,107.815265 82.5274066,108.172135 C83.5010528,108.673065 82.6907482,108.761423 83.1943219,109.33283 C83.5243924,109.707363 83.2310367,109.815081 84.1946949,110.064015 C84.8983251,110.245778 85.8798724,109.998711 86.5288986,110.194224 C87.7138896,110.551192 87.1963342,111.169397 87.8627293,111.168978 C88.5301649,111.168558 88.6679198,110.687999 89.19656,110.192547 C89.501564,109.906691 88.839525,109.604935 89.5300177,109.606362 C90.6735422,109.608725 91.10345,109.938027 92.8645944,110.200128 C94.4380267,110.434292 94.4826687,110.554974 96.1991711,110.59889 C97.6505166,110.636023 97.9702363,110.569175 99.2002902,110.362227 C100.471169,110.148411 100.395935,110.085288 101.201036,109.757363 C101.896495,109.474096 101.804245,109.455757 102.201409,109.139842 C102.637889,108.792655 102.235074,108.751403 102.868325,108.431159 C103.402175,108.161183 103.950189,108.225063 104.535613,107.959401 C105.117291,107.695438 104.325602,107.497514 105.202528,107.371908 C106.326348,107.210939 107.543464,107.190506 108.537105,107.386253 C109.54421,107.584651 108.196836,107.964509 109.20402,108.160198 C110.197582,108.35324 111.291353,108.350134 112.538597,108.163716 C114.292472,107.901575 113.4543,107.359766 115.206258,107.26308 C117.122334,107.157335 117.529415,107.516855 119.874666,107.758854 C121.364179,107.912552 121.32784,107.941948 122.875785,108.054473 C124.495688,108.172229 124.608642,108.092138 126.210362,108.219416 C127.77649,108.343865 128.327935,108.278215 129.211481,108.557926 C130.161952,108.858824 129.410226,108.977658 129.878396,109.380633 C132.863965,109.245345 133.558708,106.750327 135.213719,106.776076 C137.5602,106.812583 138.339897,104.995066 139.882126,105.338853 C141.674474,105.738396 140.132564,104.431391 141.882872,104.851725 C143.300412,105.192146 144.62267,104.873368 146.217822,105.15486 C147.123603,105.314701 146.633225,105.440804 146.884737,105.734391 C147.133411,106.024664 146.939508,106.414764 147.218195,106.32258 C147.773152,106.139011 147.581103,105.717753 148.552026,105.182884 C149.081663,104.891114 149.289079,110.592717 150.219314,110.638569 C151.790011,110.715988 151.750503,102.531165 153.553891,102.871169 C155.085079,103.159854 155.706613,103.534113 156.888468,103.368425 C158.874461,103.090002 158.492763,102.246899 159.889587,101.982949 C160.493509,101.86883 162.323381,98.1179271 163.891079,98.0467413 C165.491229,97.9740819 165.593422,98.0008099 167.225655,98.060835 C168.927998,98.1234383 168.912598,91.472162 170.560232,91.4699794 C171.913717,91.4681865 172.033975,91.192031 173.227894,91.2308655 C174.20145,91.2625322 174.202211,91.3942037 174.895182,91.610982 C176.369686,92.0722433 175.862608,92.2510672 177.562843,92.5869447 C178.363541,92.7451206 179.242245,92.4465768 179.897047,92.5990888 C180.742805,92.796077 180.340883,92.9384609 180.563962,93.2859452 C180.841069,93.7175854 180.711656,94.1071473 180.89742,94.1573378 C181.045114,94.1972425 181.208712,93.8138627 181.230878,93.4661357 C182.876001,67.6575728 181.116416,100.300574 184.231997,75.1020989 C184.284264,74.6793664 185.830261,75.4267927 187.566573,75.4810609 C189.164837,75.5310143 189.217222,75.3372261 190.90115,75.3105421 C192.551799,75.2843855 192.787634,75.4996005 194.235727,75.3753798 C195.955482,75.2278553 195.516654,74.9483371 197.236846,74.7670518 C198.684502,74.6144881 199.105906,74.6105169 200.571423,74.7076817 C201.606838,74.7763305 201.240209,74.9631409 202.238711,75.0986789 C203.741141,75.3026208 203.85395,75.3238402 205.573288,75.3866417 C207.188527,75.4456408 207.431779,75.2442893 208.907865,75.3422802 C209.932711,75.4103153 209.562655,75.6759904 210.575153,75.7186936 C212.063588,75.78147 212.230021,75.6184915 213.90973,75.5532394 C215.564598,75.4889524 215.571261,82.9623846 217.244306,82.9343622 C218.905838,82.9065325 218.911473,82.9177444 220.578883,82.9162821 C222.24605,82.91482 222.267616,82.8812256 223.91346,82.9285134 C225.602193,82.9770334 225.567037,83.0897268 227.248037,83.1078979 C228.901614,83.1257725 229.00504,83.1193949 230.582613,83.0006048 C232.172888,82.8808582 232.098343,82.8221418 233.583732,82.6308244 C235.099462,82.4355992 235.112921,82.440038 236.584851,82.2275197 C238.280769,81.982662 238.237754,81.7371329 239.919428,81.7160724 C241.405602,81.6974603 241.365199,82.1279207 242.920547,82.1481745 C244.533047,82.1691726 244.586023,81.7997156 246.255124,81.7985762 C247.920599,81.7974393 247.883247,81.9958876 249.589701,82.1436218 C251.217824,82.2845747 251.562466,76.1960921 252.924277,76.406684 C253.89667,76.5570558 253.261999,76.7991108 254.258108,76.8962828 C255.596202,77.0268159 255.943221,76.9117271 257.592685,76.8620941 C259.277797,76.8113883 259.267836,76.6873937 260.927261,76.6956052 C262.602413,76.7038945 262.57442,76.8690535 264.261838,76.8950956 C265.908997,76.9205163 265.933933,69.3798442 267.596415,69.3237839 C269.26851,69.2673994 269.307285,69.2977441 270.930992,69.1954592 C272.641862,69.0876835 272.951389,69.1573535 274.265568,68.9036626 C275.952508,68.5780135 275.000353,68.2640343 276.93323,68.0367791 C281.002591,67.55833 281.961577,67.888067 286.270045,67.4922541 C287.2969,67.3979183 286.874119,67.2626569 287.603875,67.0564815 C289.041594,66.6502882 289.12728,72.6358641 290.604994,72.2367828 C291.794941,71.9154181 291.477416,71.76742 292.939198,71.5848558 C294.145077,71.4342517 295.095295,71.4023584 295.940317,71.5704462 C296.762583,71.7340074 295.449795,72.1643261 296.273775,72.2481537 C297.283813,72.3509099 297.888717,72.0272944 299.608351,71.9436139 C300.889836,71.8812545 301.458626,71.7988523 302.276013,71.9560739 C303.125915,72.1195497 302.041669,72.4738309 302.942928,72.5850088 C304.042416,72.7206398 304.598353,72.4907819 306.277505,72.4496917 C307.932929,72.4091821 308.026719,72.5132017 309.612082,72.4218092 C311.194567,72.3305825 311.375877,65.4999767 312.613201,65.2624344 C313.543352,65.0838635 312.994437,64.9322899 313.947031,64.7675641 C315.161911,64.5574831 315.432095,64.6291667 316.94815,64.5128207 C318.433214,64.3988531 318.412375,64.3611955 319.94927,64.306937 C322.247139,64.225813 322.321404,64.3256989 324.617677,64.2420558 C326.322896,64.1799422 326.277276,64.0225303 327.952254,64.0154236 C329.611852,64.0083821 329.619718,64.2139309 331.28683,64.2137594 C332.954295,64.2135879 332.981538,64.1347465 334.621407,64.0147374 C336.316115,63.890715 336.305125,70.701841 337.955984,70.547715 C339.639702,70.3905212 339.607674,66.1080332 341.290561,65.9503548 C342.775522,65.811221 342.775714,58.3349087 344.29168,58.2155822 C345.776833,58.098681 346.669869,58.2795912 347.292799,58.0031526 C348.503886,57.4657062 347.202331,57.2626954 347.959714,56.5878122 C348.369433,56.2227228 348.881919,56.2664194 349.627002,55.9232074 C351.216123,55.1912016 351.594313,55.2091859 352.628121,54.4373766 C353.261601,53.9644405 352.695074,53.9328251 352.961579,53.4337166 C353.361989,52.6838319 353.360719,52.2750402 353.961952,51.9393904 C354.194363,51.8096426 354.43993,52.2145414 354.628867,52.5029212 C355.273574,53.4869514 354.204848,53.9214986 355.629241,54.4842104 C356.205594,54.7119013 357.571165,53.9452561 358.63036,54.0837267 C360.238827,54.2940048 360.087865,40.0798748 360.964563,40.2322142 C361.421696,40.3116479 360.845253,39.8890842 361.298021,39.5977791 C361.678897,39.3527278 361.919698,39.3703476 362.631852,39.1595015 C363.420257,38.9260796 363.260815,38.7381834 364.29914,38.7092431 C365.761747,38.6684772 366.24702,38.7849208 367.633717,39.0200891 C368.581223,39.1807757 368.584573,39.2346373 368.967547,39.5009528 C369.584946,39.9302832 368.549816,40.1770289 369.634463,40.4113809 C370.550562,40.6093161 371.300365,40.3792621 372.969039,40.3655273 C374.634942,40.3518153 374.838298,40.2451624 376.303616,40.3564873 C377.33923,40.4351662 377.237617,40.8282397 377.970905,40.7455349 C379.405092,40.583778 378.899568,40.1402677 380.638566,39.8675638 C381.900687,39.669642 382.305387,39.8056999 383.973143,39.8042836 C385.639963,39.8028681 385.650664,39.8813576 387.307719,39.8619002 C388.985241,39.8422024 389.064371,39.8540885 390.642296,39.7259731 C392.232219,39.5968836 392.15995,39.5437821 393.643415,39.3474903 C395.161069,39.1466747 395.32507,39.1910002 396.644534,38.9317583 C398.15946,38.6341132 397.714764,32.126377 399.312196,31.9380859 C400.382425,31.8119367 400.807494,32.1059293 401.979857,32.0072475 C403.641884,31.867349 403.261043,46.5618641 404.980976,46.410419 C407.262535,46.2095211 407.569626,42.6627684 409.982841,42.5146819 C411.571118,42.4172175 411.47027,42.3415343 412.98396,42.1819438 C414.638117,42.0075437 415.538104,42.1856577 416.318537,41.8467006 C418.102643,41.0718292 417.206309,40.8999966 418.113039,39.9542868 C418.706869,39.3349295 418.878991,39.341658 419.319656,38.7165665 C419.75215,38.1030664 419.099515,37.7113539 419.859357,37.4771035 C420.266617,37.3515502 421.609991,38.3063483 421.65386,37.9969591 C422.673971,30.8025255 421.123061,42.4306799 421.987317,36.7662235 C422.123434,35.8740987 422.762584,39.2111019 423.654606,39.1805623 C424.596601,39.1483119 423.588908,37.7242624 425.655352,36.6406435 C426.423298,36.2379415 428.050422,36.5345777 429.323386,36.2079206 C430.384625,35.9355946 429.916579,35.8306522 430.323759,35.4426774 C430.750223,35.0363285 430.659732,42.5058324 430.990675,42.09402 C431.326648,41.6759477 431.206868,41.1691141 431.65759,41.2576548 C432.37397,41.3983821 432.529324,34.8450589 433.324878,35.0778092 C433.696425,35.1865103 433.450556,34.7509602 433.991794,34.4658107 C434.617658,34.1360755 434.803425,34.1535421 435.659082,33.8480397 C436.303984,33.6177848 436.71243,33.6559818 436.992913,33.394296 C437.879532,32.5670951 437.842831,30.9743732 437.993286,31.6702662 C439.343391,37.9148829 438.907168,26.9006156 439.994032,33.6312781 C440.07427,34.1281732 439.759459,33.0229527 440.327489,32.481344 C440.593104,32.2280844 441.154248,31.9689573 441.66132,32.0415416 C442.488078,32.1598869 442.527938,32.9580355 442.995151,32.8632031 C443.69504,32.7211434 443.53141,32.2168727 443.995524,31.5677574 C444.365054,31.0509279 444.32335,30.3646083 444.662439,30.5313137 C445.323723,30.856418 444.550278,31.9934746 445.99627,32.5513769 C446.551024,32.765416 447.61833,31.513016 448.663931,31.2224443 C449.452347,31.0033441 449.356625,23.2880338 449.664304,23.0045097 C450.023541,22.6734758 449.881149,22.6625997 449.997762,22.3185573 C450.381336,21.1868981 449.617113,21.1030722 450.664677,20.0531065 C450.950944,19.7661839 451.789254,19.8744399 452.665423,19.6447808 C453.456542,19.4374149 453.526447,19.4345468 453.999254,19.1790564 C455.193736,18.5335944 454.690522,25.9457139 456,25.3176229" id="Shape-Copy" transform="translate(228.340732, 73.069588) scale(-1, 1) translate(-228.340732, -73.069588) "></path>
                    </g>
                </g>
            </g>
        </g>
    </g>
</svg>
