<?xml version="1.0" encoding="UTF-8"?>
<svg width="1400" height="700" viewBox="0 0 1400 700" xmlns="http://www.w3.org/2000/svg">
  <defs>
    <!-- Subtle dotted pattern -->
    <pattern id="worldDots" x="0" y="0" width="3" height="3" patternUnits="userSpaceOnUse">
      <circle cx="1.5" cy="1.5" r="0.5" fill="#404040" opacity="0.12"/>
    </pattern>
    
    <!-- Slightly denser dots for landmasses -->
    <pattern id="landDots" x="0" y="0" width="2.5" height="2.5" patternUnits="userSpaceOnUse">
      <circle cx="1.25" cy="1.25" r="0.4" fill="#404040" opacity="0.18"/>
    </pattern>
  </defs>
  
  <!-- Background subtle dots -->
  <rect width="1400" height="700" fill="url(#worldDots)"/>
  
  <!-- North America -->
  <path d="M150 150 L350 140 L380 170 L400 200 L390 250 L370 290 L330 320 L280 330 L230 320 L180 300 L150 270 L140 220 Z" fill="url(#landDots)"/>
  
  <!-- Greenland -->
  <path d="M400 100 L450 95 L470 120 L460 150 L430 160 L400 150 Z" fill="url(#landDots)"/>
  
  <!-- South America -->
  <path d="M280 360 L330 350 L360 380 L370 420 L380 470 L370 520 L350 570 L320 590 L280 580 L260 540 L250 490 L240 440 L250 390 Z" fill="url(#landDots)"/>
  
  <!-- Europe -->
  <path d="M580 180 L650 170 L680 190 L670 220 L640 240 L600 230 L580 210 Z" fill="url(#landDots)"/>
  
  <!-- Scandinavia -->
  <path d="M620 130 L650 125 L670 140 L665 165 L635 170 L620 155 Z" fill="url(#landDots)"/>
  
  <!-- Africa -->
  <path d="M580 260 L640 250 L680 280 L700 320 L710 370 L700 420 L680 470 L650 500 L620 490 L590 460 L570 420 L560 370 L550 320 L560 280 Z" fill="url(#landDots)"/>
  
  <!-- Asia - Western -->
  <path d="M700 180 L800 170 L850 190 L880 220 L900 260 L920 300 L910 340 L880 360 L840 350 L800 340 L760 330 L720 320 L700 290 L690 250 L700 210 Z" fill="url(#landDots)"/>
  
  <!-- Asia - Eastern (China/Mongolia) -->
  <path d="M900 200 L1000 190 L1050 220 L1080 260 L1070 300 L1040 330 L1000 340 L960 330 L920 320 L900 290 L890 250 Z" fill="url(#landDots)"/>
  
  <!-- India -->
  <path d="M800 300 L850 290 L880 320 L870 360 L840 380 L800 370 L780 340 Z" fill="url(#landDots)"/>
  
  <!-- Southeast Asia -->
  <path d="M920 340 L980 330 L1020 350 L1040 380 L1020 410 L980 420 L940 410 L920 380 Z" fill="url(#landDots)"/>
  
  <!-- Japan -->
  <path d="M1080 220 L1100 215 L1110 235 L1105 255 L1085 260 L1080 240 Z" fill="url(#landDots)"/>
  
  <!-- Australia -->
  <path d="M1000 480 L1100 470 L1140 490 L1150 520 L1130 550 L1080 560 L1020 550 L1000 520 Z" fill="url(#landDots)"/>
  
  <!-- New Zealand -->
  <path d="M1160 520 L1175 515 L1180 535 L1175 555 L1160 560 L1155 540 Z" fill="url(#landDots)"/>
  
  <!-- Madagascar -->
  <path d="M720 450 L735 445 L740 470 L735 495 L720 500 L715 475 Z" fill="url(#landDots)"/>
  
  <!-- UK and Ireland -->
  <path d="M550 170 L570 165 L575 180 L570 195 L550 200 L545 185 Z" fill="url(#landDots)"/>
  
  <!-- Additional islands and archipelagos -->
  <circle cx="1050" cy="380" r="8" fill="url(#landDots)"/> <!-- Philippines -->
  <circle cx="970" cy="400" r="6" fill="url(#landDots)"/> <!-- Indonesia -->
  <circle cx="1120" cy="450" r="5" fill="url(#landDots)"/> <!-- Papua New Guinea -->
  
  <!-- Caribbean -->
  <circle cx="300" cy="320" r="4" fill="url(#landDots)"/>
  <circle cx="310" cy="315" r="3" fill="url(#landDots)"/>
  <circle cx="320" cy="325" r="2" fill="url(#landDots)"/>
  
  <!-- Additional atmospheric dots -->
  <g opacity="0.06">
    <circle cx="200" cy="250" r="1" fill="#404040"/>
    <circle cx="450" cy="350" r="1" fill="#404040"/>
    <circle cx="650" cy="400" r="1" fill="#404040"/>
    <circle cx="850" cy="280" r="1" fill="#404040"/>
    <circle cx="1050" cy="350" r="1" fill="#404040"/>
    <circle cx="350" cy="500" r="1" fill="#404040"/>
    <circle cx="750" cy="550" r="1" fill="#404040"/>
    <circle cx="950" cy="180" r="1" fill="#404040"/>
    <circle cx="1150" cy="400" r="1" fill="#404040"/>
  </g>
</svg>