<?xml version="1.0" encoding="UTF-8"?>
<svg width="1200" height="600" viewBox="0 0 1200 600" xmlns="http://www.w3.org/2000/svg">
  <defs>
    <pattern id="dots" x="0" y="0" width="4" height="4" patternUnits="userSpaceOnUse">
      <circle cx="2" cy="2" r="0.8" fill="#2a2a2a" opacity="0.15"/>
    </pattern>
  </defs>
  
  <!-- World Map Continents as dotted patterns -->
  
  <!-- North America -->
  <path d="M120 120 L280 110 L300 140 L320 160 L300 200 L280 220 L240 240 L200 250 L160 240 L140 220 L120 200 Z" fill="url(#dots)"/>
  <path d="M140 250 L200 260 L240 280 L220 300 L180 310 L140 300 Z" fill="url(#dots)"/>
  
  <!-- South America -->
  <path d="M220 320 L260 310 L280 340 L290 380 L280 420 L260 460 L240 480 L220 460 L210 420 L200 380 L210 340 Z" fill="url(#dots)"/>
  
  <!-- Europe -->
  <path d="M480 140 L540 130 L560 150 L550 170 L520 180 L490 170 L480 150 Z" fill="url(#dots)"/>
  
  <!-- Africa -->
  <path d="M480 200 L520 190 L540 220 L550 260 L540 300 L520 340 L500 360 L480 340 L470 300 L460 260 L470 220 Z" fill="url(#dots)"/>
  
  <!-- Asia -->
  <path d="M580 120 L720 110 L780 130 L820 160 L840 200 L820 240 L780 260 L720 250 L680 240 L640 230 L600 220 L580 200 L570 160 Z" fill="url(#dots)"/>
  
  <!-- China/Eastern Asia -->
  <path d="M720 200 L780 190 L820 220 L800 260 L760 270 L720 260 Z" fill="url(#dots)"/>
  
  <!-- India -->
  <path d="M680 240 L720 230 L740 260 L720 290 L680 280 Z" fill="url(#dots)"/>
  
  <!-- Australia -->
  <path d="M780 360 L840 350 L860 370 L850 390 L820 400 L780 390 Z" fill="url(#dots)"/>
  
  <!-- Greenland -->
  <path d="M360 80 L400 70 L420 90 L410 110 L380 120 L360 110 Z" fill="url(#dots)"/>
  
  <!-- Additional landmasses for more detail -->
  <path d="M840 180 L880 170 L900 190 L890 210 L860 220 L840 210 Z" fill="url(#dots)"/>
  <path d="M580 280 L620 270 L640 290 L620 310 L580 320 L560 310 L570 290 Z" fill="url(#dots)"/>
  
  <!-- Islands and smaller landmasses -->
  <circle cx="920" cy="200" r="8" fill="url(#dots)"/>
  <circle cx="100" cy="380" r="6" fill="url(#dots)"/>
  <circle cx="940" cy="340" r="5" fill="url(#dots)"/>
  <circle cx="80" cy="160" r="4" fill="url(#dots)"/>
  
  <!-- Additional scattered dots for oceanic effect -->
  <g opacity="0.08">
    <circle cx="150" cy="180" r="1" fill="#2a2a2a"/>
    <circle cx="350" cy="250" r="1" fill="#2a2a2a"/>
    <circle cx="450" cy="320" r="1" fill="#2a2a2a"/>
    <circle cx="650" cy="180" r="1" fill="#2a2a2a"/>
    <circle cx="750" cy="320" r="1" fill="#2a2a2a"/>
    <circle cx="250" cy="450" r="1" fill="#2a2a2a"/>
    <circle cx="550" cy="420" r="1" fill="#2a2a2a"/>
    <circle cx="850" cy="280" r="1" fill="#2a2a2a"/>
  </g>
</svg>